<svg version="1.1" id="Layer_1" xmlns="http://www.w3.org/2000/svg" xmlns:xlink="http://www.w3.org/1999/xlink" x="0px" y="0px"
	 width="100%" viewBox="0 0 512 512" enable-background="new 0 0 512 512" xml:space="preserve">
<path fill="#FFE477" opacity="1.000000" stroke="none" 
	d="
M419.000000,513.000000 
	C311.311890,513.000000 203.623810,513.000000 95.268890,512.698608 
	C79.393967,508.739471 68.768631,493.335541 68.813828,476.793152 
	C69.155571,351.686371 68.995872,226.578217 69.006142,101.470497 
	C69.007515,84.790703 84.822517,69.026604 101.528427,69.003510 
	C124.683815,68.971497 147.839249,68.960030 171.165039,69.323807 
	C171.498459,78.848602 171.702820,87.988853 171.810776,97.130249 
	C171.889694,103.812866 171.833191,103.819885 178.734238,103.820137 
	C229.859207,103.822006 280.984192,103.851990 332.109100,103.797928 
	C343.830353,103.785530 341.935089,105.350952 342.193237,93.792435 
	C342.378326,85.506317 342.728394,77.223877 343.472778,68.960480 
	C366.920807,68.987656 389.907806,68.650215 412.878723,69.112976 
	C430.241333,69.462753 444.822662,83.734917 444.857941,100.861015 
	C445.118988,227.584290 445.047699,354.308411 444.908508,481.032074 
	C444.897217,491.293091 440.167175,499.880341 431.824615,505.951752 
	C427.912140,508.799103 423.296814,510.680725 419.000000,513.000000 
M314.500000,427.806580 
	C328.331085,427.806396 342.162323,427.841614 355.993073,427.773315 
	C358.472504,427.761078 361.008759,427.580231 363.417419,427.031952 
	C371.548920,425.180878 376.527802,418.330353 376.219788,409.736603 
	C375.932190,401.712341 370.201782,395.161438 362.183533,393.939270 
	C359.399139,393.514862 356.546692,393.379700 353.725250,393.378387 
	C289.235657,393.348419 224.746048,393.349426 160.256470,393.376221 
	C157.600739,393.377350 154.920334,393.509857 152.294052,393.881927 
	C143.883163,395.073639 138.068695,401.510345 137.779449,409.754883 
	C137.471039,418.544617 142.608307,425.383850 151.089539,427.134674 
	C153.670898,427.667572 156.376190,427.778290 159.024933,427.780121 
	C210.516617,427.815643 262.008301,427.806335 314.500000,427.806580 
M327.500000,188.839676 
	C270.347992,188.841354 213.195969,188.817184 156.043991,188.867126 
	C145.006378,188.876770 137.819046,195.623703 137.760529,205.667297 
	C137.702133,215.688644 145.024323,222.898071 155.758011,222.907471 
	C223.240601,222.966553 290.723297,222.965317 358.205902,222.909271 
	C368.947693,222.900360 376.282745,215.715973 376.239319,205.703674 
	C376.196350,195.796066 369.129608,188.998718 358.491943,188.873199 
	C348.495911,188.755234 338.497406,188.842453 327.500000,188.839676 
M222.500000,325.160370 
	C266.655334,325.160248 310.810669,325.162201 354.966003,325.153687 
	C357.130768,325.153259 359.310059,325.203735 361.457703,324.985504 
	C369.608826,324.157440 375.823822,317.500824 376.200653,309.322327 
	C376.705994,298.356171 369.225708,291.081482 357.233337,291.072540 
	C312.911407,291.039520 268.589447,291.057922 224.267517,291.058167 
	C201.440048,291.058319 178.612274,290.989990 155.785263,291.092834 
	C144.623596,291.143097 137.317734,298.698425 137.798477,309.304413 
	C138.219315,318.588806 145.305771,325.074158 155.517120,325.121246 
	C177.511002,325.222717 199.505661,325.157593 222.500000,325.160370 
z"/>
<path fill="none" opacity="1.000000" stroke="none" 
	d="
M170.994659,68.939758 
	C147.839249,68.960030 124.683815,68.971497 101.528427,69.003510 
	C84.822517,69.026604 69.007515,84.790703 69.006142,101.470497 
	C68.995872,226.578217 69.155571,351.686371 68.813828,476.793152 
	C68.768631,493.335541 79.393967,508.739471 94.801041,512.698608 
	C63.682781,513.000000 32.365562,513.000000 1.024171,513.000000 
	C1.024171,342.437225 1.024171,171.874435 1.024171,1.000000 
	C82.353966,1.000000 163.708328,1.000000 245.458298,1.340103 
	C243.871078,2.801724 241.876694,3.903361 239.907349,5.048124 
	C230.428177,10.558332 224.442764,18.688541 223.199020,29.569912 
	C222.687378,34.046200 221.114395,35.113735 217.039093,35.063698 
	C203.400314,34.896236 189.756699,35.112587 176.118317,34.929688 
	C172.274841,34.878139 170.811417,35.951553 170.918427,39.996769 
	C171.173477,49.638359 170.996902,59.291363 170.994659,68.939758 
z"/>
<path fill="none" opacity="1.000000" stroke="none" 
	d="
M419.468658,513.000000 
	C423.296814,510.680725 427.912140,508.799103 431.824615,505.951752 
	C440.167175,499.880341 444.897217,491.293091 444.908508,481.032074 
	C445.047699,354.308411 445.118988,227.584290 444.857941,100.861015 
	C444.822662,83.734917 430.241333,69.462753 412.878723,69.112976 
	C389.907806,68.650215 366.920807,68.987656 343.470703,68.496681 
	C343.000275,58.879585 342.799805,49.740669 343.087311,40.617138 
	C343.222870,36.316586 342.012421,34.813473 337.520660,34.901863 
	C323.744110,35.172974 309.958710,34.988129 296.176819,35.007870 
	C293.511047,35.011684 291.291809,34.859730 290.974091,31.279165 
	C289.797455,18.018652 282.683990,8.971366 270.789459,3.387460 
	C269.721405,2.886066 268.923401,1.809469 268.000000,1.000003 
	C349.624664,1.000000 431.249359,1.000000 512.937012,1.000000 
	C512.937012,171.666656 512.937012,342.333344 512.937012,513.000000 
	C481.905487,513.000000 450.921417,513.000000 419.468658,513.000000 
z"/>
<path fill="#E6E7E7" opacity="1.000000" stroke="none" 
	d="
M267.531433,1.000003 
	C268.923401,1.809469 269.721405,2.886066 270.789459,3.387460 
	C282.683990,8.971366 289.797455,18.018652 290.974091,31.279165 
	C291.291809,34.859730 293.511047,35.011684 296.176819,35.007870 
	C309.958710,34.988129 323.744110,35.172974 337.520660,34.901863 
	C342.012421,34.813473 343.222870,36.316586 343.087311,40.617138 
	C342.799805,49.740669 343.000275,58.879585 343.002747,68.475998 
	C342.728394,77.223877 342.378326,85.506317 342.193237,93.792435 
	C341.935089,105.350952 343.830353,103.785530 332.109100,103.797928 
	C280.984192,103.851990 229.859207,103.822006 178.734238,103.820137 
	C171.833191,103.819885 171.889694,103.812866 171.810776,97.130249 
	C171.702820,87.988853 171.498459,78.848602 171.165039,69.323807 
	C170.996902,59.291363 171.173477,49.638359 170.918427,39.996769 
	C170.811417,35.951553 172.274841,34.878139 176.118317,34.929688 
	C189.756699,35.112587 203.400314,34.896236 217.039093,35.063698 
	C221.114395,35.113735 222.687378,34.046200 223.199020,29.569912 
	C224.442764,18.688541 230.428177,10.558332 239.907349,5.048124 
	C241.876694,3.903361 243.871078,2.801724 245.926956,1.340103 
	C253.020950,1.000000 260.041901,1.000000 267.531433,1.000003 
z"/>
<path fill="#FF5124" opacity="1.000000" stroke="none" 
	d="
M314.000000,427.806396 
	C262.008301,427.806335 210.516617,427.815643 159.024933,427.780121 
	C156.376190,427.778290 153.670898,427.667572 151.089539,427.134674 
	C142.608307,425.383850 137.471039,418.544617 137.779449,409.754883 
	C138.068695,401.510345 143.883163,395.073639 152.294052,393.881927 
	C154.920334,393.509857 157.600739,393.377350 160.256470,393.376221 
	C224.746048,393.349426 289.235657,393.348419 353.725250,393.378387 
	C356.546692,393.379700 359.399139,393.514862 362.183533,393.939270 
	C370.201782,395.161438 375.932190,401.712341 376.219788,409.736603 
	C376.527802,418.330353 371.548920,425.180878 363.417419,427.031952 
	C361.008759,427.580231 358.472504,427.761078 355.993073,427.773315 
	C342.162323,427.841614 328.331085,427.806396 314.000000,427.806396 
z"/>
<path fill="#FF5123" opacity="1.000000" stroke="none" 
	d="
M328.000000,188.839539 
	C338.497406,188.842453 348.495911,188.755234 358.491943,188.873199 
	C369.129608,188.998718 376.196350,195.796066 376.239319,205.703674 
	C376.282745,215.715973 368.947693,222.900360 358.205902,222.909271 
	C290.723297,222.965317 223.240601,222.966553 155.758011,222.907471 
	C145.024323,222.898071 137.702133,215.688644 137.760529,205.667297 
	C137.819046,195.623703 145.006378,188.876770 156.043991,188.867126 
	C213.195969,188.817184 270.347992,188.841354 328.000000,188.839539 
z"/>
<path fill="#FF5123" opacity="1.000000" stroke="none" 
	d="
M222.000000,325.160492 
	C199.505661,325.157593 177.511002,325.222717 155.517120,325.121246 
	C145.305771,325.074158 138.219315,318.588806 137.798477,309.304413 
	C137.317734,298.698425 144.623596,291.143097 155.785263,291.092834 
	C178.612274,290.989990 201.440048,291.058319 224.267517,291.058167 
	C268.589447,291.057922 312.911407,291.039520 357.233337,291.072540 
	C369.225708,291.081482 376.705994,298.356171 376.200653,309.322327 
	C375.823822,317.500824 369.608826,324.157440 361.457703,324.985504 
	C359.310059,325.203735 357.130768,325.153259 354.966003,325.153687 
	C310.810669,325.162201 266.655334,325.160248 222.000000,325.160492 
z"/>
</svg>