<svg version="1.1" id="Layer_1" xmlns="http://www.w3.org/2000/svg" xmlns:xlink="http://www.w3.org/1999/xlink" x="0px" y="0px"
	 width="100%" viewBox="0 0 64 64" enable-background="new 0 0 64 64" xml:space="preserve">
<path fill="#FFFFFF" opacity="1.000000" stroke="none" 
	d="
M1.000000,60.000000 
	C1.000000,40.414860 1.000000,20.829716 1.000000,1.000000 
	C16.353363,1.000000 31.708023,1.000000 47.446945,1.338084 
	C45.592144,3.572481 43.219776,5.333711 41.137344,7.388744 
	C32.611591,15.802328 24.420147,24.571903 15.625195,32.689926 
	C8.813228,38.977589 3.365566,45.635582 2.794807,55.343761 
	C2.701812,56.925549 1.623105,58.449379 1.000000,60.000000 
z"/>
<path fill="#FFFFFF" opacity="1.000000" stroke="none" 
	d="
M65.000000,18.000000 
	C65.000000,33.601105 65.000000,49.202209 65.000000,65.000000 
	C45.979557,65.000000 26.958435,65.000000 7.605751,64.622955 
	C16.083433,62.670284 24.170647,60.538200 30.715538,53.140362 
	C41.546162,40.898270 53.512310,29.660780 65.000000,18.000000 
z"/>
<path fill="#070A06" opacity="1.000000" stroke="none" 
	d="
M65.000000,17.529549 
	C53.512310,29.660780 41.546162,40.898270 30.715538,53.140362 
	C24.170647,60.538200 16.083433,62.670284 7.137094,64.622955 
	C5.095223,65.000000 3.190447,65.000000 1.000000,65.000000 
	C1.000000,63.671467 1.000000,62.335693 1.000000,60.499962 
	C1.623105,58.449379 2.701812,56.925549 2.794807,55.343761 
	C3.365566,45.635582 8.813228,38.977589 15.625195,32.689926 
	C24.420147,24.571903 32.611591,15.802328 41.137344,7.388744 
	C43.219776,5.333711 45.592144,3.572481 47.915604,1.338084 
	C53.592087,1.000000 59.184174,1.000000 65.000000,1.000000 
	C65.000000,6.350975 65.000000,11.705034 65.000000,17.529549 
M35.089787,44.589840 
	C41.268635,38.409164 47.447487,32.228493 52.731781,26.942636 
	C47.971546,22.009113 43.764484,17.648903 39.974846,13.721310 
	C30.047743,23.663591 19.867285,33.859615 9.660285,44.082218 
	C13.685538,48.112797 18.017756,52.450745 22.713722,57.152924 
	C26.695316,53.108585 30.642521,49.099178 35.089787,44.589840 
M54.158321,3.315701 
	C51.986069,3.766043 49.813820,4.216384 47.368835,4.723267 
	C52.220375,9.561522 56.520275,13.849644 60.780815,18.098516 
	C64.860336,11.840659 62.669895,6.188331 54.158321,3.315701 
M10.149347,47.997875 
	C9.467795,47.633198 8.503963,46.780132 8.151078,46.984100 
	C6.056718,48.194603 5.833570,54.677361 7.265796,56.691212 
	C10.997164,61.937893 15.196231,59.841354 20.853861,57.693516 
	C17.033020,54.242756 13.864409,51.381050 10.149347,47.997875 
M44.831707,13.711469 
	C48.155811,17.347784 51.479916,20.984098 54.974758,24.807188 
	C56.822201,22.811256 57.897816,21.649185 58.244667,21.274454 
	C53.833992,16.416035 49.655132,11.812964 45.373554,7.096746 
	C44.125626,8.274068 43.049492,9.289316 41.855106,10.416127 
	C42.828968,11.514033 43.584454,12.365746 44.831707,13.711469 
z"/>
<path fill="#00B976" opacity="1.000000" stroke="none" 
	d="
M34.839756,44.839806 
	C30.642521,49.099178 26.695316,53.108585 22.713722,57.152924 
	C18.017756,52.450745 13.685538,48.112797 9.660285,44.082218 
	C19.867285,33.859615 30.047743,23.663591 39.974846,13.721310 
	C43.764484,17.648903 47.971546,22.009113 52.731781,26.942636 
	C47.447487,32.228493 41.268635,38.409164 34.839756,44.839806 
z"/>
<path fill="#C3C5C5" opacity="1.000000" stroke="none" 
	d="
M54.527679,3.425150 
	C62.669895,6.188331 64.860336,11.840659 60.780815,18.098516 
	C56.520275,13.849644 52.220375,9.561522 47.368835,4.723267 
	C49.813820,4.216384 51.986069,3.766043 54.527679,3.425150 
z"/>
<path fill="#B68F64" opacity="1.000000" stroke="none" 
	d="
M10.422573,48.258614 
	C13.864409,51.381050 17.033020,54.242756 20.853861,57.693516 
	C15.196231,59.841354 10.997164,61.937893 7.265796,56.691212 
	C5.833570,54.677361 6.056718,48.194603 8.151078,46.984100 
	C8.503963,46.780132 9.467795,47.633198 10.422573,48.258614 
z"/>
<path fill="#FD9711" opacity="1.000000" stroke="none" 
	d="
M44.585823,13.464464 
	C43.584454,12.365746 42.828968,11.514033 41.855106,10.416127 
	C43.049492,9.289316 44.125626,8.274068 45.373554,7.096746 
	C49.655132,11.812964 53.833992,16.416035 58.244667,21.274454 
	C57.897816,21.649185 56.822201,22.811256 54.974758,24.807188 
	C51.479916,20.984098 48.155811,17.347784 44.585823,13.464464 
z"/>
</svg>