<svg version="1.1" id="Layer_1" xmlns="http://www.w3.org/2000/svg" xmlns:xlink="http://www.w3.org/1999/xlink" x="0px" y="0px"
	 width="100%" viewBox="0 0 512 512" enable-background="new 0 0 512 512" xml:space="preserve">
<path fill="#FFAA20" opacity="1.000000" stroke="none" 
	d="
M225.000000,0.999997 
	C235.354233,1.000000 245.708450,1.000000 256.531250,1.468657 
	C257.011047,31.273626 257.022339,60.609940 256.581635,89.989655 
	C251.317078,90.411804 246.435120,90.397079 241.702789,91.231194 
	C201.790375,98.266029 173.103317,120.202560 158.484940,157.997986 
	C143.929947,195.629471 150.169830,231.127838 175.326096,262.721405 
	C181.475616,270.444519 189.584503,276.607483 196.403793,283.657074 
	C140.807098,306.156128 104.921913,345.898987 89.874474,403.547272 
	C86.261459,417.389099 85.955528,432.094177 83.835152,446.199463 
	C76.197632,438.332306 68.681648,430.824127 61.547649,422.968994 
	C49.109459,409.273468 38.914555,393.900391 30.364838,377.593414 
	C16.097914,350.381989 6.208181,321.652161 2.916508,290.890106 
	C2.842623,290.199615 1.663540,289.627411 0.999997,289.000000 
	C1.000000,267.645782 1.000000,246.291550 1.329378,224.809418 
	C2.092878,224.012039 2.790553,223.389923 2.920642,222.665817 
	C4.331358,214.813553 5.323207,206.871719 7.058441,199.094666 
	C13.183205,171.644470 23.738333,145.902344 38.564522,122.051155 
	C52.800377,99.149658 70.430008,79.078247 90.932022,61.476940 
	C104.967453,49.427303 120.091568,38.968864 136.373886,30.380707 
	C163.573715,16.034063 192.370621,6.324471 223.108597,2.916975 
	C223.801376,2.840176 224.372253,1.663577 225.000000,0.999997 
z"/>
<path fill="#FF8900" opacity="1.000000" stroke="none" 
	d="
M257.033600,89.946251 
	C257.022339,60.609940 257.011047,31.273626 256.999878,1.468657 
	C267.354218,1.000000 277.708466,1.000000 288.246155,1.368971 
	C289.442810,2.155573 290.420868,2.775085 291.474762,2.958299 
	C298.682007,4.211241 305.984222,5.021801 313.108856,6.627069 
	C337.751678,12.179373 361.160980,20.951752 383.166473,33.522099 
	C399.507141,42.856483 415.056702,53.358501 428.571106,66.355919 
	C440.196869,77.536934 451.228516,89.496300 461.317200,102.078255 
	C477.460205,122.210670 489.424072,144.860031 498.101227,169.221848 
	C504.328064,186.704102 509.220428,204.477524 511.088104,223.006653 
	C511.160797,223.728012 512.337646,224.338074 513.000000,225.000000 
	C513.000000,246.020889 513.000000,267.041779 512.637329,288.239258 
	C511.854156,289.261597 511.182404,290.071136 511.054443,290.959015 
	C510.286255,296.289307 510.031281,301.721924 508.892365,306.965607 
	C503.151642,333.395508 494.383820,358.708954 480.991791,382.349823 
	C467.374390,406.388489 450.462982,427.734467 429.921448,445.809998 
	C429.265930,437.883911 428.992218,430.381683 428.045532,422.965393 
	C422.787140,381.770935 404.505219,347.223053 374.452576,318.743805 
	C357.937836,303.093658 338.696899,291.818542 317.938751,283.008087 
	C318.879059,282.131866 319.616272,281.469208 320.397705,280.863617 
	C346.295410,260.793671 361.078857,234.443390 362.816589,201.748962 
	C364.648956,167.274597 351.992462,138.214798 325.907196,115.556984 
	C306.256165,98.487999 283.184937,89.733910 256.940369,90.082901 
	C256.962097,90.031639 257.033600,89.946251 257.033600,89.946251 
z"/>
<path fill="#7985EB" opacity="1.000000" stroke="none" 
	d="
M84.128662,446.402222 
	C85.955528,432.094177 86.261459,417.389099 89.874474,403.547272 
	C104.921913,345.898987 140.807098,306.156128 196.689423,283.765869 
	C215.578476,295.218048 235.445206,301.376801 256.990875,302.565186 
	C256.995697,373.018250 256.997833,443.009125 257.000000,513.000000 
	C246.645767,513.000000 236.291550,513.000000 225.800690,512.658936 
	C224.826935,511.873993 224.037094,511.211945 223.145660,511.018768 
	C209.222427,508.001678 195.141937,505.588531 181.388458,501.940094 
	C163.278122,497.135956 146.301712,489.346466 130.038345,480.016327 
	C113.478050,470.515839 98.213730,459.270630 84.128662,446.402222 
z"/>
<path fill="#4B5BE6" opacity="1.000000" stroke="none" 
	d="
M257.468658,513.000000 
	C256.997833,443.009125 256.995697,373.018250 257.036499,302.480347 
	C257.079407,301.933289 257.043732,301.743988 257.481720,301.821930 
	C266.586060,300.724915 275.664825,300.790253 283.820251,298.078674 
	C295.486237,294.199860 306.477112,288.290497 317.756256,283.248230 
	C338.696899,291.818542 357.937836,303.093658 374.452576,318.743805 
	C404.505219,347.223053 422.787140,381.770935 428.045532,422.965393 
	C428.992218,430.381683 429.265930,437.883911 429.697815,446.057739 
	C428.849457,447.190125 428.086792,447.530853 427.467957,448.044769 
	C420.309296,453.989319 413.553162,460.511078 405.929626,465.779053 
	C397.158325,471.840118 387.513824,476.620422 378.451111,482.281219 
	C367.254089,489.275146 355.119446,494.131012 342.797821,498.583740 
	C325.594696,504.800507 307.922638,509.093353 289.710541,511.095276 
	C289.078186,511.164764 288.567413,512.340088 288.000000,513.000000 
	C277.979095,513.000000 267.958221,513.000000 257.468658,513.000000 
z"/>
<path fill="none" opacity="1.000000" stroke="none" 
	d="
M288.468628,513.000000 
	C288.567413,512.340088 289.078186,511.164764 289.710541,511.095276 
	C307.922638,509.093353 325.594696,504.800507 342.797821,498.583740 
	C355.119446,494.131012 367.254089,489.275146 378.451111,482.281219 
	C387.513824,476.620422 397.158325,471.840118 405.929626,465.779053 
	C413.553162,460.511078 420.309296,453.989319 427.467957,448.044769 
	C428.086792,447.530853 428.849457,447.190125 429.768982,446.521240 
	C450.462982,427.734467 467.374390,406.388489 480.991791,382.349823 
	C494.383820,358.708954 503.151642,333.395508 508.892365,306.965607 
	C510.031281,301.721924 510.286255,296.289307 511.054443,290.959015 
	C511.182404,290.071136 511.854156,289.261597 512.637329,288.707947 
	C513.000000,363.593842 513.000000,438.187714 513.000000,513.000000 
	C438.312592,513.000000 363.624939,513.000000 288.468628,513.000000 
z"/>
<path fill="none" opacity="1.000000" stroke="none" 
	d="
M83.835152,446.199463 
	C98.213730,459.270630 113.478050,470.515839 130.038345,480.016327 
	C146.301712,489.346466 163.278122,497.135956 181.388458,501.940094 
	C195.141937,505.588531 209.222427,508.001678 223.145660,511.018768 
	C224.037094,511.211945 224.826935,511.873993 225.332031,512.658936 
	C150.406296,513.000000 75.812599,513.000000 1.000000,513.000000 
	C1.000000,438.645905 1.000000,364.291626 0.999997,289.468658 
	C1.663540,289.627411 2.842623,290.199615 2.916508,290.890106 
	C6.208181,321.652161 16.097914,350.381989 30.364838,377.593414 
	C38.914555,393.900391 49.109459,409.273468 61.547649,422.968994 
	C68.681648,430.824127 76.197632,438.332306 83.835152,446.199463 
z"/>
<path fill="none" opacity="1.000000" stroke="none" 
	d="
M513.000000,224.531342 
	C512.337646,224.338074 511.160797,223.728012 511.088104,223.006653 
	C509.220428,204.477524 504.328064,186.704102 498.101227,169.221848 
	C489.424072,144.860031 477.460205,122.210670 461.317200,102.078255 
	C451.228516,89.496300 440.196869,77.536934 428.571106,66.355919 
	C415.056702,53.358501 399.507141,42.856483 383.166473,33.522099 
	C361.160980,20.951752 337.751678,12.179373 313.108856,6.627069 
	C305.984222,5.021801 298.682007,4.211241 291.474762,2.958299 
	C290.420868,2.775085 289.442810,2.155573 288.714844,1.368971 
	C363.593719,1.000000 438.187408,1.000000 513.000000,1.000000 
	C513.000000,75.354088 513.000000,149.708389 513.000000,224.531342 
z"/>
<path fill="none" opacity="1.000000" stroke="none" 
	d="
M224.531342,0.999997 
	C224.372253,1.663577 223.801376,2.840176 223.108597,2.916975 
	C192.370621,6.324471 163.573715,16.034063 136.373886,30.380707 
	C120.091568,38.968864 104.967453,49.427303 90.932022,61.476940 
	C70.430008,79.078247 52.800377,99.149658 38.564522,122.051155 
	C23.738333,145.902344 13.183205,171.644470 7.058441,199.094666 
	C5.323207,206.871719 4.331358,214.813553 2.920642,222.665817 
	C2.790553,223.389923 2.092878,224.012039 1.329378,224.340759 
	C1.000000,149.739456 1.000000,75.478920 1.000000,1.000000 
	C75.354088,1.000000 149.708389,1.000000 224.531342,0.999997 
z"/>
<path fill="#FFDBA9" opacity="1.000000" stroke="none" 
	d="
M257.033813,302.018127 
	C235.445206,301.376801 215.578476,295.218048 197.078156,283.596558 
	C189.584503,276.607483 181.475616,270.444519 175.326096,262.721405 
	C150.169830,231.127838 143.929947,195.629471 158.484940,157.997986 
	C173.103317,120.202560 201.790375,98.266029 241.702789,91.231194 
	C246.435120,90.397079 251.317078,90.411804 256.581635,89.989655 
	C257.033600,89.946251 256.962097,90.031639 256.957581,90.541992 
	C256.983276,161.282898 257.013489,231.513443 257.043732,301.743988 
	C257.043732,301.743988 257.079407,301.933289 257.033813,302.018127 
z"/>
<path fill="#FFC473" opacity="1.000000" stroke="none" 
	d="
M257.481720,301.821930 
	C257.013489,231.513443 256.983276,161.282898 256.935822,90.593254 
	C283.184937,89.733910 306.256165,98.487999 325.907196,115.556984 
	C351.992462,138.214798 364.648956,167.274597 362.816589,201.748962 
	C361.078857,234.443390 346.295410,260.793671 320.397705,280.863617 
	C319.616272,281.469208 318.879059,282.131866 317.938751,283.008087 
	C306.477112,288.290497 295.486237,294.199860 283.820251,298.078674 
	C275.664825,300.790253 266.586060,300.724915 257.481720,301.821930 
z"/>
</svg>