<svg version="1.1" id="Layer_1" xmlns="http://www.w3.org/2000/svg" xmlns:xlink="http://www.w3.org/1999/xlink" x="0px" y="0px"
	 width="100%" viewBox="0 0 128 128" enable-background="new 0 0 128 128" xml:space="preserve">
<path fill="#FFFFFF" opacity="1.000000" stroke="none" 
	d="
M68.000000,1.000000 
	C88.296661,1.000000 108.593323,1.000000 128.944992,1.000000 
	C128.944992,43.552986 128.944992,86.106056 128.944992,129.000000 
	C111.313896,129.000000 93.625610,129.000000 75.634399,128.640778 
	C90.493980,126.129303 101.757309,117.562584 110.905075,105.989738 
	C116.665833,98.701797 119.292000,90.235817 120.353989,80.765556 
	C121.833496,67.572014 120.354340,55.344746 113.912910,43.770985 
	C112.013527,40.358238 108.812927,39.963043 105.901436,41.825710 
	C102.196533,44.195980 98.958946,47.289711 95.472801,50.011204 
	C92.842628,52.064465 92.548569,54.284264 93.994171,57.338276 
	C95.649361,60.835060 97.489113,64.543976 97.861771,68.298393 
	C99.861687,88.446884 85.584908,104.402977 64.607895,106.083374 
	C62.794067,105.666801 61.397697,105.176849 59.965572,105.025780 
	C52.273842,104.214401 45.635361,100.579231 40.871613,95.058151 
	C31.221359,83.873726 28.211548,69.627869 36.737305,55.662746 
	C42.220299,46.681644 50.094433,41.503353 61.000175,39.838608 
	C61.000175,43.345268 61.148449,46.323086 60.959137,49.279282 
	C60.763588,52.332878 61.862610,53.927681 65.393684,53.894760 
	C66.769707,53.539753 67.917480,53.302219 68.769379,52.667545 
	C77.520027,46.148136 86.183754,39.511711 94.955215,33.020744 
	C99.356781,29.763544 99.278961,25.326176 94.865234,21.956423 
	C85.838516,15.064785 76.947121,7.995893 68.000000,1.000000 
z"/>
<path fill="#17ACE8" opacity="1.000000" stroke="none" 
	d="
M65.028099,53.827888 
	C61.862610,53.927681 60.763588,52.332878 60.959137,49.279282 
	C61.148449,46.323086 61.000175,43.345268 61.000175,39.838608 
	C50.094433,41.503353 42.220299,46.681644 36.737305,55.662746 
	C28.211548,69.627869 31.221359,83.873726 40.871613,95.058151 
	C45.635361,100.579231 52.273842,104.214401 59.965572,105.025780 
	C61.397697,105.176849 62.794067,105.666801 64.605042,106.540817 
	C65.002106,114.387520 65.001053,121.693756 65.000000,129.000000 
	C61.638714,129.000000 58.277424,129.000000 54.296730,128.649200 
	C39.310921,125.268600 27.577372,117.920181 19.082289,106.011269 
	C10.216135,93.582176 6.513578,79.777901 8.907891,64.334244 
	C11.329677,48.713406 18.937439,36.472679 31.266035,26.961451 
	C39.970562,20.246109 50.080345,16.923244 60.459965,15.700531 
	C61.010071,10.449449 61.505039,5.724724 62.000000,1.000000 
	C62.750000,1.000000 63.500000,1.000000 64.625015,1.468657 
	C65.009392,19.234173 65.018745,36.531029 65.028099,53.827888 
z"/>
<path fill="#FFFFFF" opacity="1.000000" stroke="none" 
	d="
M61.531342,1.000000 
	C61.505039,5.724724 61.010071,10.449449 60.459965,15.700531 
	C50.080345,16.923244 39.970562,20.246109 31.266035,26.961451 
	C18.937439,36.472679 11.329677,48.713406 8.907891,64.334244 
	C6.513578,79.777901 10.216135,93.582176 19.082289,106.011269 
	C27.577372,117.920181 39.310921,125.268600 53.838661,128.649200 
	C36.365322,129.000000 18.730642,129.000000 1.047981,129.000000 
	C1.047981,86.442619 1.047981,43.885170 1.047981,1.000000 
	C21.019703,1.000000 41.041191,1.000000 61.531342,1.000000 
z"/>
<path fill="#168AFC" opacity="1.000000" stroke="none" 
	d="
M65.454109,129.000000 
	C65.001053,121.693756 65.002106,114.387520 65.006004,106.623840 
	C85.584908,104.402977 99.861687,88.446884 97.861771,68.298393 
	C97.489113,64.543976 95.649361,60.835060 93.994171,57.338276 
	C92.548569,54.284264 92.842628,52.064465 95.472801,50.011204 
	C98.958946,47.289711 102.196533,44.195980 105.901436,41.825710 
	C108.812927,39.963043 112.013527,40.358238 113.912910,43.770985 
	C120.354340,55.344746 121.833496,67.572014 120.353989,80.765556 
	C119.292000,90.235817 116.665833,98.701797 110.905075,105.989738 
	C101.757309,117.562584 90.493980,126.129303 75.165741,128.640778 
	C71.969406,129.000000 68.938812,129.000000 65.454109,129.000000 
z"/>
<path fill="#168AFC" opacity="1.000000" stroke="none" 
	d="
M65.393684,53.894760 
	C65.018745,36.531029 65.009392,19.234173 65.000015,1.468657 
	C65.750000,1.000000 66.500000,1.000000 67.625000,1.000000 
	C76.947121,7.995893 85.838516,15.064785 94.865234,21.956423 
	C99.278961,25.326176 99.356781,29.763544 94.955215,33.020744 
	C86.183754,39.511711 77.520027,46.148136 68.769379,52.667545 
	C67.917480,53.302219 66.769707,53.539753 65.393684,53.894760 
z"/>
</svg>