<svg version="1.1" id="Layer_1" xmlns="http://www.w3.org/2000/svg" xmlns:xlink="http://www.w3.org/1999/xlink" x="0px" y="0px"
	 width="100%" viewBox="0 0 64 64" enable-background="new 0 0 64 64" xml:space="preserve">
<path fill="#000000" opacity="1.000000" stroke="none" 
	d="
M65.000000,9.000000 
	C65.000000,27.632584 65.000000,46.265167 65.000000,64.948875 
	C43.739796,64.948875 22.479450,64.948875 1.109549,64.948875 
	C1.109549,43.779152 1.109549,22.557550 1.109549,1.000000 
	C19.352861,1.000000 37.707771,1.000000 56.600895,1.330632 
	C59.759403,4.107509 62.379704,6.553754 65.000000,9.000000 
M53.893360,35.482567 
	C53.593315,35.393391 53.293274,35.304214 52.064327,35.090950 
	C38.712765,35.132309 25.361198,35.173664 11.489106,35.109108 
	C11.381403,35.408642 11.273700,35.708176 11.149669,36.666092 
	C25.168606,36.827194 39.187504,36.993202 53.206848,37.101772 
	C53.413155,37.103371 53.624992,36.390015 53.893360,35.482567 
M11.481772,3.087294 
	C11.376474,3.394660 11.271177,3.702027 11.015101,4.929058 
	C11.015101,9.173004 11.015101,13.416951 11.015101,17.504168 
	C12.800926,18.107847 14.333522,18.625925 14.660686,19.726435 
	C10.461758,20.771008 8.558130,19.426096 8.932337,14.828854 
	C9.224086,11.244646 8.896055,7.609991 8.816730,3.526441 
	C8.637108,3.194571 8.367612,3.086304 7.148312,3.095141 
	C3.748796,2.462445 2.967487,4.059663 2.993791,7.235040 
	C3.126100,23.207096 3.054338,39.180840 3.054238,55.153992 
	C3.054223,57.596962 3.054236,60.039936 3.054236,62.573906 
	C5.556928,62.573906 7.434368,62.573906 9.858663,62.573906 
	C9.858663,52.652401 9.858663,43.089634 9.858663,33.254951 
	C12.012761,33.153500 13.641859,33.013016 15.271187,33.010277 
	C26.751856,32.990974 38.232574,32.998653 49.713276,33.000526 
	C56.244843,33.001595 56.248413,33.003983 56.251591,39.390568 
	C56.255451,47.139332 56.252510,54.888092 56.252510,62.687950 
	C58.821186,62.687950 60.590885,62.687950 62.661137,62.687950 
	C62.765560,61.003174 62.931854,59.550194 62.933876,58.096989 
	C62.953541,43.954121 62.745892,29.806881 63.052483,15.670635 
	C63.162056,10.618320 60.285019,8.444407 56.880596,6.085294 
	C56.478065,6.628121 56.147926,6.866892 56.140148,7.115737 
	C56.062275,9.607270 56.035938,12.100438 55.997944,14.593189 
	C55.908676,20.450325 55.278423,20.874258 50.851105,18.495228 
	C53.178818,18.357887 54.246613,17.355526 54.053665,14.804363 
	C53.782738,11.222172 53.889400,7.611421 53.912075,3.472275 
	C53.604931,3.386348 53.297783,3.300422 52.062481,3.086018 
	C38.712662,3.128845 25.362841,3.171672 11.481772,3.087294 
M53.518246,62.912708 
	C53.623550,62.605350 53.728855,62.297997 53.985058,61.065372 
	C53.985058,53.977383 53.985058,46.889389 53.985058,39.575573 
	C39.532799,39.575573 25.517200,39.575573 11.165532,39.575573 
	C11.165532,47.173729 11.165532,54.580429 11.087956,62.527706 
	C11.395083,62.613651 11.702209,62.699596 12.937493,62.914040 
	C26.287331,62.871208 39.637169,62.828377 53.518246,62.912708 
z"/>
<path fill="#FFFFFF" opacity="1.000000" stroke="none" 
	d="
M65.000000,8.505266 
	C62.379704,6.553754 59.759403,4.107509 57.069553,1.330632 
	C59.582455,1.000000 62.164913,1.000000 65.000000,1.000000 
	C65.000000,3.333921 65.000000,5.672227 65.000000,8.505266 
z"/>
<path fill="#5A6470" opacity="1.000000" stroke="none" 
	d="
M8.843451,3.997754 
	C8.896055,7.609991 9.224086,11.244646 8.932337,14.828854 
	C8.558130,19.426096 10.461758,20.771008 15.277315,19.473444 
	C16.386677,19.451197 16.879408,19.681940 17.913792,19.972673 
	C19.179947,19.992661 19.904451,19.952658 20.855225,19.472645 
	C30.571211,18.996841 40.060928,18.961046 49.550648,18.925251 
	C55.278423,20.874258 55.908676,20.450325 55.997944,14.593189 
	C56.035938,12.100438 56.062275,9.607270 56.140148,7.115737 
	C56.147926,6.866892 56.478065,6.628121 56.880596,6.085294 
	C60.285019,8.444407 63.162056,10.618320 63.052483,15.670635 
	C62.745892,29.806881 62.953541,43.954121 62.933876,58.096989 
	C62.931854,59.550194 62.765560,61.003174 62.661137,62.687950 
	C60.590885,62.687950 58.821186,62.687950 56.252510,62.687950 
	C56.252510,54.888092 56.255451,47.139332 56.251591,39.390568 
	C56.248413,33.003983 56.244843,33.001595 49.713276,33.000526 
	C38.232574,32.998653 26.751856,32.990974 15.271187,33.010277 
	C13.641859,33.013016 12.012761,33.153500 9.858663,33.254951 
	C9.858663,43.089634 9.858663,52.652401 9.858663,62.573906 
	C7.434368,62.573906 5.556928,62.573906 3.054236,62.573906 
	C3.054236,60.039936 3.054223,57.596962 3.054238,55.153992 
	C3.054338,39.180840 3.126100,23.207096 2.993791,7.235040 
	C2.967487,4.059663 3.748796,2.462445 7.678782,3.317549 
	C8.380880,3.747641 8.592279,3.900240 8.843451,3.997754 
z"/>
<path fill="#CFDFE8" opacity="1.000000" stroke="none" 
	d="
M11.165532,61.987129 
	C11.165532,54.580429 11.165532,47.173729 11.165532,39.575573 
	C25.517200,39.575573 39.532799,39.575573 53.985058,39.575573 
	C53.985058,46.889389 53.985058,53.977383 53.728951,61.614983 
	C53.234783,62.312031 53.072842,62.519012 52.987007,62.785545 
	C39.637169,62.828377 26.287331,62.871208 12.381535,62.671631 
	C11.646029,62.221447 11.426014,62.074081 11.165532,61.987129 
z"/>
<path fill="#CFDFE8" opacity="1.000000" stroke="none" 
	d="
M50.200874,18.710239 
	C40.060928,18.961046 30.571211,18.996841 20.857807,18.874689 
	C19.546793,19.115389 18.459465,19.514036 17.372139,19.912683 
	C16.879408,19.681940 16.386677,19.451197 15.880032,19.182228 
	C14.333522,18.625925 12.800926,18.107847 11.015101,17.504168 
	C11.015101,13.416951 11.015101,9.173004 11.271158,4.382257 
	C11.765283,3.688037 11.927218,3.481051 12.013021,3.214499 
	C25.362841,3.171672 38.712662,3.128845 52.618446,3.328431 
	C53.353989,3.778632 53.574039,3.925979 53.834568,4.012885 
	C53.889400,7.611421 53.782738,11.222172 54.053665,14.804363 
	C54.246613,17.355526 53.178818,18.357887 50.200874,18.710239 
M44.563202,6.000008 
	C39.949284,5.174592 41.183884,8.504397 40.975483,10.936983 
	C40.688404,14.287938 41.386177,16.140707 45.469868,16.131178 
	C49.472561,16.121838 50.365192,14.425523 50.026539,10.997334 
	C49.870834,9.421148 50.000019,7.816820 50.000019,6.000001 
	C48.114296,6.000001 46.807034,6.000001 44.563202,6.000008 
z"/>
<path fill="#9FBECC" opacity="1.000000" stroke="none" 
	d="
M12.009634,35.215019 
	C25.361198,35.173664 38.712765,35.132309 52.624153,35.327557 
	C53.360817,35.771053 53.577576,35.919773 53.834248,36.010323 
	C53.624992,36.390015 53.413155,37.103371 53.206848,37.101772 
	C39.187504,36.993202 25.168606,36.827194 11.335756,36.247803 
	C11.753356,35.679390 11.915954,35.474560 12.009634,35.215019 
z"/>
<path fill="#4F5762" opacity="1.000000" stroke="none" 
	d="
M8.830091,3.762097 
	C8.592279,3.900240 8.380880,3.747641 8.108748,3.370797 
	C8.367612,3.086304 8.637108,3.194571 8.830091,3.762097 
z"/>
<path fill="#B5C3CB" opacity="1.000000" stroke="none" 
	d="
M11.747396,3.150896 
	C11.927218,3.481051 11.765283,3.688037 11.346547,3.922425 
	C11.271177,3.702027 11.376474,3.394660 11.747396,3.150896 
z"/>
<path fill="#B5C3CB" opacity="1.000000" stroke="none" 
	d="
M53.873322,3.742580 
	C53.574039,3.925979 53.353989,3.778632 53.082527,3.392670 
	C53.297783,3.300422 53.604931,3.386348 53.873322,3.742580 
z"/>
<path fill="#8BA6B2" opacity="1.000000" stroke="none" 
	d="
M11.749371,35.162064 
	C11.915954,35.474560 11.753356,35.679390 11.343920,35.918610 
	C11.273700,35.708176 11.381403,35.408642 11.749371,35.162064 
z"/>
<path fill="#8BA6B2" opacity="1.000000" stroke="none" 
	d="
M53.863804,35.746445 
	C53.577576,35.919773 53.360817,35.771053 53.088604,35.389603 
	C53.293274,35.304214 53.593315,35.393391 53.863804,35.746445 
z"/>
<path fill="#B5C3CB" opacity="1.000000" stroke="none" 
	d="
M11.126744,62.257416 
	C11.426014,62.074081 11.646029,62.221447 11.917456,62.607384 
	C11.702209,62.699596 11.395083,62.613651 11.126744,62.257416 
z"/>
<path fill="#B5C3CB" opacity="1.000000" stroke="none" 
	d="
M53.252625,62.849129 
	C53.072842,62.519012 53.234783,62.312031 53.653500,62.077618 
	C53.728855,62.297997 53.623550,62.605350 53.252625,62.849129 
z"/>
<path fill="#000000" opacity="1.000000" stroke="none" 
	d="
M17.913792,19.972673 
	C18.459465,19.514036 19.546793,19.115389 20.631536,19.314697 
	C19.904451,19.952658 19.179947,19.992661 17.913792,19.972673 
z"/>
<path fill="#000000" opacity="1.000000" stroke="none" 
	d="
M45.031487,6.000005 
	C46.807034,6.000001 48.114296,6.000001 50.000019,6.000001 
	C50.000019,7.816820 49.870834,9.421148 50.026539,10.997334 
	C50.365192,14.425523 49.472561,16.121838 45.469868,16.131178 
	C41.386177,16.140707 40.688404,14.287938 40.975483,10.936983 
	C41.183884,8.504397 39.949284,5.174592 45.031487,6.000005 
z"/>
</svg>