<svg version="1.1" id="Layer_1" xmlns="http://www.w3.org/2000/svg" xmlns:xlink="http://www.w3.org/1999/xlink" x="0px" y="0px"
	 width="100%" viewBox="0 0 64 64" enable-background="new 0 0 64 64" xml:space="preserve">
<path fill="#000000" opacity="1.000000" stroke="none" 
	d="
M65.000000,9.000000 
	C65.000000,27.632584 65.000000,46.265167 65.000000,64.948875 
	C43.739796,64.948875 22.479450,64.948875 1.109549,64.948875 
	C1.109549,43.779152 1.109549,22.557550 1.109549,1.000000 
	C19.352861,1.000000 37.707771,1.000000 56.600891,1.330634 
	C59.759396,4.107512 62.379700,6.553756 65.000000,9.000000 
M57.000000,48.494873 
	C57.000000,52.937489 57.000000,57.380104 57.000000,61.739502 
	C58.930351,61.739502 60.333031,61.739502 62.000000,61.739502 
	C62.000000,46.364048 61.835262,31.243731 62.107479,16.131285 
	C62.182266,11.979232 60.765835,9.364395 56.999786,7.116506 
	C56.999786,10.754026 56.891834,14.018989 57.032387,17.273218 
	C57.154892,20.109671 55.938477,21.054014 53.184608,21.037180 
	C39.706669,20.954784 26.227661,20.953539 12.749739,21.037451 
	C9.939953,21.054943 8.877089,19.985840 8.964614,17.206852 
	C9.099592,12.921197 9.000161,8.628159 9.000161,3.993313 
	C7.073146,4.082012 5.568514,4.151269 4.164012,4.215918 
	C4.164012,23.690023 4.164012,42.622505 4.164012,61.669441 
	C5.839468,61.669441 7.340413,61.669441 9.231371,61.669441 
	C9.231371,51.945408 9.231371,42.546322 9.231371,33.292328 
	C25.352730,33.292328 41.074547,33.292328 57.000000,33.292328 
	C57.000000,38.221909 57.000000,42.860764 57.000000,48.494873 
M43.476910,40.000000 
	C33.049786,40.000000 22.622660,40.000000 12.295652,40.000000 
	C12.295652,47.663372 12.295652,54.735710 12.295652,61.704567 
	C26.329802,61.704567 40.066395,61.704567 53.702507,61.704567 
	C53.702507,54.333179 53.702507,47.260464 53.702507,40.000000 
	C50.426510,40.000000 47.446430,40.000000 43.476910,40.000000 
M53.995987,5.702580 
	C53.394623,5.136204 52.796745,4.079804 52.191387,4.075501 
	C38.910336,3.981115 25.628452,4.003451 12.223352,4.003451 
	C12.223352,8.847131 12.223352,13.252188 12.223352,17.773033 
	C26.186512,17.773033 39.925453,17.773033 53.999710,17.773033 
	C53.999710,13.924620 53.999710,10.294017 53.995987,5.702580 
M51.949249,36.998539 
	C52.439709,36.873840 52.930172,36.749142 54.571182,36.331917 
	C39.789822,36.331917 26.236626,36.331917 12.683433,36.331917 
	C12.683896,36.554585 12.684360,36.777256 12.684823,36.999924 
	C25.473724,36.999924 38.262627,36.999924 51.949249,36.998539 
z"/>
<path fill="#FFFFFF" opacity="1.000000" stroke="none" 
	d="
M65.000000,8.505267 
	C62.379700,6.553756 59.759396,4.107512 57.069550,1.330634 
	C59.582455,1.000000 62.164913,1.000000 65.000000,1.000000 
	C65.000000,3.333921 65.000000,5.672227 65.000000,8.505267 
z"/>
<path fill="#FFFFFF" opacity="1.000000" stroke="none" 
	d="
M57.000000,47.997246 
	C57.000000,42.860764 57.000000,38.221909 57.000000,33.292328 
	C41.074547,33.292328 25.352730,33.292328 9.231371,33.292328 
	C9.231371,42.546322 9.231371,51.945408 9.231371,61.669441 
	C7.340413,61.669441 5.839468,61.669441 4.164012,61.669441 
	C4.164012,42.622505 4.164012,23.690023 4.164012,4.215918 
	C5.568514,4.151269 7.073146,4.082012 9.000161,3.993313 
	C9.000161,8.628159 9.099592,12.921197 8.964614,17.206852 
	C8.877089,19.985840 9.939953,21.054943 12.749739,21.037451 
	C26.227661,20.953539 39.706669,20.954784 53.184608,21.037180 
	C55.938477,21.054014 57.154892,20.109671 57.032387,17.273218 
	C56.891834,14.018989 56.999786,10.754026 56.999786,7.116506 
	C60.765835,9.364395 62.182266,11.979232 62.107479,16.131285 
	C61.835262,31.243731 62.000000,46.364048 62.000000,61.739502 
	C60.333031,61.739502 58.930351,61.739502 57.000000,61.739502 
	C57.000000,57.380104 57.000000,52.937489 57.000000,47.997246 
z"/>
<path fill="#FFFFFF" opacity="1.000000" stroke="none" 
	d="
M43.971634,40.000000 
	C47.446430,40.000000 50.426510,40.000000 53.702507,40.000000 
	C53.702507,47.260464 53.702507,54.333179 53.702507,61.704567 
	C40.066395,61.704567 26.329802,61.704567 12.295652,61.704567 
	C12.295652,54.735710 12.295652,47.663372 12.295652,40.000000 
	C22.622660,40.000000 33.049786,40.000000 43.971634,40.000000 
z"/>
<path fill="#FFFFFF" opacity="1.000000" stroke="none" 
	d="
M53.997849,6.182998 
	C53.999710,10.294017 53.999710,13.924620 53.999710,17.773033 
	C39.925453,17.773033 26.186512,17.773033 12.223352,17.773033 
	C12.223352,13.252188 12.223352,8.847131 12.223352,4.003451 
	C25.628452,4.003451 38.910336,3.981115 52.191387,4.075501 
	C52.796745,4.079804 53.394623,5.136204 53.997849,6.182998 
M45.404083,5.000002 
	C43.981613,5.082075 42.559139,5.164147 41.308578,5.236301 
	C41.308578,9.056080 41.308578,12.469566 41.308578,15.999992 
	C43.105007,15.999992 44.601624,15.908139 46.083027,16.019194 
	C49.127186,16.247404 51.440773,15.833475 51.026543,11.869196 
	C50.692455,8.671936 52.428932,4.203359 45.404083,5.000002 
z"/>
<path fill="#FFFFFF" opacity="1.000000" stroke="none" 
	d="
M51.500389,36.999229 
	C38.262627,36.999924 25.473724,36.999924 12.684823,36.999924 
	C12.684360,36.777256 12.683896,36.554585 12.683433,36.331917 
	C26.236626,36.331917 39.789822,36.331917 54.571182,36.331917 
	C52.930172,36.749142 52.439709,36.873840 51.500389,36.999229 
z"/>
<path fill="#000000" opacity="1.000000" stroke="none" 
	d="
M45.866795,5.000006 
	C52.428932,4.203359 50.692455,8.671936 51.026543,11.869196 
	C51.440773,15.833475 49.127186,16.247404 46.083027,16.019194 
	C44.601624,15.908139 43.105007,15.999992 41.308578,15.999992 
	C41.308578,12.469566 41.308578,9.056080 41.308578,5.236301 
	C42.559139,5.164147 43.981613,5.082075 45.866795,5.000006 
z"/>
</svg>