<svg version="1.1" id="Layer_1" xmlns="http://www.w3.org/2000/svg" xmlns:xlink="http://www.w3.org/1999/xlink" x="0px" y="0px"
	 width="100%" viewBox="0 0 512 512" enable-background="new 0 0 512 512" xml:space="preserve">
<path fill="none" opacity="1.000000" stroke="none" 
	d="
M0.999998,235.000000 
	C1.000000,157.072952 1.000000,79.145912 1.000000,1.000000 
	C78.687424,1.000000 156.375061,1.000000 234.342377,1.384710 
	C216.640854,2.925995 199.066864,6.202766 181.624161,11.932388 
	C180.854095,12.041984 180.414673,12.103850 179.713989,12.142235 
	C179.261276,12.400547 179.069824,12.682343 178.487244,12.977385 
	C166.691315,17.517933 154.829025,21.165598 143.998947,26.798016 
	C130.836761,33.643299 118.544662,42.161617 105.562325,50.090759 
	C104.670555,50.511082 104.009415,50.696548 103.526802,51.097126 
	C89.565842,62.685135 75.953110,74.563774 63.954594,88.327271 
	C47.641960,107.039490 34.320881,127.497948 23.940048,150.017761 
	C13.174973,173.371155 5.852725,197.637314 2.957458,223.219971 
	C2.510431,227.169891 1.662516,231.074463 0.999998,235.000000 
z"/>
<path fill="none" opacity="1.000000" stroke="none" 
	d="
M235.000000,513.000000 
	C157.072968,513.000000 79.145927,513.000000 1.000000,513.000000 
	C1.000000,435.312561 1.000000,357.624939 1.383784,279.659027 
	C2.844751,288.128693 3.241817,297.029175 5.161471,305.588196 
	C7.913302,317.857513 11.776387,329.877625 15.102407,342.378662 
	C16.377958,346.197235 17.667564,349.661102 19.062534,353.081970 
	C25.796301,369.595093 34.032608,385.307678 44.196487,400.344238 
	C55.516914,416.277527 67.466301,431.297211 82.086395,444.419861 
	C87.049713,448.888702 91.663185,453.340698 96.760567,457.144104 
	C104.649391,463.030243 112.868629,468.473511 121.106339,474.416199 
	C126.951492,478.057129 132.476868,481.711578 138.366318,484.631805 
	C145.398102,488.118439 152.741592,490.976440 160.129395,494.432861 
	C171.176086,498.324036 181.940399,502.257416 192.943985,505.335419 
	C201.476913,507.722351 210.308823,509.040558 219.443665,510.904144 
	C224.919662,511.649658 229.959839,512.324829 235.000000,513.000000 
z"/>
<path fill="none" opacity="1.000000" stroke="none" 
	d="
M279.000000,1.000000 
	C356.927032,1.000000 434.854095,1.000000 513.000000,1.000000 
	C513.000000,78.687424 513.000000,156.375061 512.606934,234.354675 
	C511.474152,227.861420 511.191132,220.986786 509.885345,214.312256 
	C508.021149,204.783203 505.407806,195.400711 503.066956,185.550339 
	C502.987976,184.316483 503.150726,183.422409 502.896759,182.668808 
	C494.574127,157.973175 484.215057,134.260513 468.910278,112.567924 
	C458.317841,97.203720 446.717377,83.142815 432.910156,70.571304 
	C427.245544,65.401245 421.902130,60.290493 416.111267,55.750462 
	C410.666565,51.481827 404.749542,47.815601 398.904114,43.565857 
	C384.513519,35.553593 370.259186,27.859802 355.626526,20.085524 
	C353.441742,19.325575 351.670563,18.525192 349.823181,17.985933 
	C335.904053,13.922875 321.969940,9.911182 307.825195,5.535298 
	C301.806152,4.443342 295.993683,3.760785 290.201843,2.933802 
	C286.452271,2.398430 282.732910,1.651907 279.000000,1.000000 
z"/>
<path fill="none" opacity="1.000000" stroke="none" 
	d="
M513.000000,279.000000 
	C513.000000,356.927032 513.000000,434.854095 513.000000,513.000000 
	C435.312561,513.000000 357.624939,513.000000 279.649200,512.610352 
	C284.242493,511.758362 289.123871,511.296021 294.413574,510.895355 
	C302.236237,509.461029 309.691895,508.143188 317.056641,506.433502 
	C334.755676,502.324799 351.752808,496.201019 368.403290,488.060608 
	C372.178192,486.164703 375.576660,484.311371 378.995056,482.495575 
	C406.321106,467.980377 429.780426,448.728088 450.169556,425.470612 
	C466.460297,406.888062 479.703796,386.485199 490.040497,364.071350 
	C500.826721,340.682800 508.176453,316.369293 511.041534,290.731293 
	C511.481232,286.797058 512.336792,282.909271 513.000000,279.000000 
z"/>
<path fill="#333F44" opacity="1.000000" stroke="none" 
	d="
M513.000000,278.531342 
	C512.336792,282.909271 511.481232,286.797058 511.041534,290.731293 
	C508.176453,316.369293 500.826721,340.682800 490.040497,364.071350 
	C479.703796,386.485199 466.460297,406.888062 450.169556,425.470612 
	C429.780426,448.728088 406.321106,467.980377 378.995056,482.495575 
	C375.576660,484.311371 372.178192,486.164703 368.425049,487.691589 
	C371.961761,479.114624 375.863678,470.855865 379.714142,462.573242 
	C380.878632,460.068268 381.900604,457.497009 383.187561,454.689209 
	C401.584991,442.410339 418.318726,428.731293 433.150330,411.155975 
	C422.662567,406.157440 412.839539,401.475677 403.059631,396.447754 
	C406.078369,390.062439 409.053925,384.023376 412.393524,378.005859 
	C424.044495,383.377502 435.331421,388.727600 446.782135,394.155304 
	C447.626801,392.975220 448.500275,391.776031 449.352020,390.561584 
	C465.344025,367.760468 476.903534,342.875305 483.949066,315.953491 
	C493.013519,281.317078 493.869598,246.367584 487.686829,211.141663 
	C488.900604,210.348480 490.033417,209.776169 490.494507,208.864227 
	C492.796295,204.311661 494.755615,199.580826 497.165344,195.089737 
	C498.877075,191.899460 501.112640,188.990265 503.114410,185.955627 
	C505.407806,195.400711 508.021149,204.783203 509.885345,214.312256 
	C511.191132,220.986786 511.474152,227.861420 512.606934,234.823334 
	C513.000000,249.354233 513.000000,263.708466 513.000000,278.531342 
z"/>
<path fill="#586267" opacity="1.000000" stroke="none" 
	d="
M0.999998,235.468658 
	C1.662516,231.074463 2.510431,227.169891 2.957458,223.219971 
	C5.852725,197.637314 13.174973,173.371155 23.940048,150.017761 
	C34.320881,127.497948 47.641960,107.039490 63.954594,88.327271 
	C75.953110,74.563774 89.565842,62.685135 103.526802,51.097126 
	C104.009415,50.696548 104.670555,50.511082 105.967499,50.104519 
	C110.239578,49.858372 110.530136,51.651192 109.287643,54.377495 
	C105.883568,61.846733 102.572327,69.359871 99.050667,76.773125 
	C97.705917,79.603867 97.938469,81.136414 101.216095,81.484665 
	C69.960526,109.914886 47.462536,143.682739 34.151142,183.508438 
	C27.583097,203.159042 24.145878,223.396820 22.126289,244.012543 
	C20.552031,245.283844 18.964426,246.337128 18.250299,247.813034 
	C14.051704,256.490448 10.192309,265.334595 5.862106,273.943237 
	C5.125806,275.407013 2.664413,276.003052 1.000001,277.000000 
	C1.000000,276.555542 1.000000,276.111115 1.346935,275.273010 
	C3.674869,273.190582 3.772860,271.838531 1.000000,271.000000 
	C1.000000,259.312439 1.000000,247.624878 0.999998,235.468658 
z"/>
<path fill="#555F64" opacity="1.000000" stroke="none" 
	d="
M1.000001,277.333313 
	C2.664413,276.003052 5.125806,275.407013 5.862106,273.943237 
	C10.192309,265.334595 14.051704,256.490448 18.250299,247.813034 
	C18.964426,246.337128 20.552031,245.283844 22.140930,244.481842 
	C22.005856,262.804443 22.516342,280.639832 26.141855,298.201385 
	C28.413366,309.204315 31.413866,320.056702 33.708427,330.987854 
	C31.946436,332.201813 30.130142,333.154602 29.263771,334.655640 
	C26.937355,338.686340 25.017172,342.951508 23.062426,346.869507 
	C20.073315,345.027985 17.619173,343.516052 15.165027,342.004120 
	C11.776387,329.877625 7.913302,317.857513 5.161471,305.588196 
	C3.241817,297.029175 2.844751,288.128693 1.383784,279.190369 
	C1.000000,278.555542 1.000000,278.111115 1.000001,277.333313 
z"/>
<path fill="#4F5A5F" opacity="1.000000" stroke="none" 
	d="
M181.954803,11.884660 
	C199.066864,6.202766 216.640854,2.925995 234.811035,1.384710 
	C244.020889,1.000000 253.041794,1.000000 262.531311,1.410128 
	C262.661133,3.560740 262.551422,5.386585 261.940765,7.025800 
	C260.063080,12.066060 257.993622,17.034897 255.586166,22.136303 
	C230.229660,22.768003 205.842102,26.624683 182.090485,34.035652 
	C184.383713,27.364779 186.703888,21.106712 188.849670,15.319073 
	C186.212616,14.005527 184.083710,12.945093 181.954803,11.884660 
z"/>
<path fill="#3C474E" opacity="1.000000" stroke="none" 
	d="
M294.005310,510.833679 
	C289.123871,511.296021 284.242493,511.758362 279.180542,512.610352 
	C264.645782,513.000000 250.291550,513.000000 235.468658,513.000000 
	C229.959839,512.324829 224.919662,511.649658 219.535553,510.538391 
	C220.531372,509.733246 221.934830,509.509216 223.193832,508.956238 
	C224.578583,508.348022 226.464081,507.750702 227.031219,506.604309 
	C229.578110,501.455872 231.733871,496.113953 234.427948,490.821045 
	C235.881622,490.768433 236.938080,490.736572 238.450836,490.809174 
	C246.664688,491.105438 254.465698,491.906067 262.170319,491.356140 
	C276.145233,490.358612 290.062775,488.556915 303.958374,487.454712 
	C300.610107,495.490265 297.307709,503.161987 294.005310,510.833679 
z"/>
<path fill="#4B555A" opacity="1.000000" stroke="none" 
	d="
M255.998718,22.031494 
	C257.993622,17.034897 260.063080,12.066060 261.940765,7.025800 
	C262.551422,5.386585 262.661133,3.560740 263.000000,1.410128 
	C268.022095,1.000000 273.044189,1.000000 278.533142,1.000000 
	C282.732910,1.651907 286.452271,2.398430 290.201843,2.933802 
	C295.993683,3.760785 301.806152,4.443342 307.847412,5.902272 
	C309.372498,8.391334 310.660065,10.165277 312.394958,12.555521 
	C310.879944,16.632174 308.852753,22.086956 306.404541,27.482801 
	C289.321869,25.626406 272.660309,23.828949 255.998718,22.031494 
z"/>
<path fill="#555F64" opacity="1.000000" stroke="none" 
	d="
M1.000000,271.399994 
	C3.772860,271.838531 3.674869,273.190582 1.346935,274.939697 
	C1.000000,273.933319 1.000000,272.866669 1.000000,271.399994 
z"/>
<path fill="#545E63" opacity="1.000000" stroke="none" 
	d="
M181.624161,11.932387 
	C184.083710,12.945093 186.212616,14.005527 188.849670,15.319073 
	C186.703888,21.106712 184.383713,27.364779 181.812973,34.236389 
	C158.336899,42.711426 136.922333,54.051926 117.210365,68.590019 
	C111.789680,72.587914 106.660736,76.981361 101.397926,81.193306 
	C97.938469,81.136414 97.705917,79.603867 99.050667,76.773125 
	C102.572327,69.359871 105.883568,61.846733 109.287643,54.377495 
	C110.530136,51.651192 110.239578,49.858372 106.281334,49.969917 
	C118.544662,42.161617 130.836761,33.643299 143.998947,26.798016 
	C154.829025,21.165598 166.691315,17.517933 178.711517,12.907372 
	C179.622330,12.682745 179.838440,12.463279 179.975250,12.165717 
	C180.414673,12.103850 180.854095,12.041984 181.624161,11.932387 
z"/>
<path fill="#4F5A5F" opacity="1.000000" stroke="none" 
	d="
M179.713989,12.142234 
	C179.838440,12.463279 179.622330,12.682745 179.102646,12.894128 
	C179.069824,12.682343 179.261276,12.400547 179.713989,12.142234 
z"/>
<path fill="#4C575C" opacity="1.000000" stroke="none" 
	d="
M81.953415,444.112366 
	C67.466301,431.297211 55.516914,416.277527 44.600822,400.342957 
	C47.486931,400.411011 49.999607,400.820709 52.706158,401.261993 
	C53.933521,398.594604 54.873898,395.473053 56.675854,392.972382 
	C58.144112,390.934784 60.643265,389.640076 62.924915,388.278015 
	C64.606476,390.504150 66.048424,392.468231 67.163750,393.987427 
	C81.464630,387.348969 95.158737,380.649506 109.142059,374.620911 
	C118.543343,370.567749 128.353775,367.463593 137.986145,364.332886 
	C136.617752,368.249146 135.173126,371.741577 133.888718,375.291992 
	C132.217712,379.911041 130.673965,384.576080 128.828323,389.466431 
	C112.541344,396.098785 96.687218,402.871796 80.939789,411.709106 
	C87.147011,418.207916 92.624512,423.942749 98.050186,430.060608 
	C96.016136,434.918488 94.089035,439.418884 92.031052,443.858582 
	C90.791969,446.531647 89.166672,447.629761 86.359871,445.307159 
	C85.292404,444.423859 83.445229,444.482849 81.953415,444.112366 
z"/>
<path fill="#515B60" opacity="1.000000" stroke="none" 
	d="
M62.685310,388.015991 
	C60.643265,389.640076 58.144112,390.934784 56.675854,392.972382 
	C54.873898,395.473053 53.933521,398.594604 52.706158,401.261993 
	C49.999607,400.820709 47.486931,400.411011 44.569912,400.002594 
	C34.032608,385.307678 25.796301,369.595093 19.062534,353.081970 
	C17.667564,349.661102 16.377958,346.197235 15.102409,342.378662 
	C17.619173,343.516052 20.073315,345.027985 23.062426,346.869507 
	C25.017172,342.951508 26.937355,338.686340 29.263771,334.655640 
	C30.130142,333.154602 31.946436,332.201813 33.965584,331.251282 
	C36.420433,336.545013 37.705051,341.864807 40.158619,346.575775 
	C47.420002,360.518097 55.142914,374.220032 62.685310,388.015991 
z"/>
<path fill="#414C52" opacity="1.000000" stroke="none" 
	d="
M234.030731,490.841827 
	C231.733871,496.113953 229.578110,501.455872 227.031219,506.604309 
	C226.464081,507.750702 224.578583,508.348022 223.193832,508.956238 
	C221.934830,509.509216 220.531372,509.733246 219.099701,510.468048 
	C210.308823,509.040558 201.476913,507.722351 192.943985,505.335419 
	C181.940399,502.257416 171.176086,498.324036 160.284637,494.117798 
	C160.617920,493.137970 161.099930,492.439026 161.314499,492.513214 
	C167.250519,494.566772 168.553253,490.052521 170.395264,486.223938 
	C171.880829,483.136169 173.462082,480.094421 175.377686,477.051819 
	C183.343903,479.415070 190.825073,482.234802 198.548019,483.991608 
	C210.287537,486.662109 222.194748,488.595398 234.030731,490.841827 
z"/>
<path fill="#455056" opacity="1.000000" stroke="none" 
	d="
M175.000885,477.032288 
	C173.462082,480.094421 171.880829,483.136169 170.395264,486.223938 
	C168.553253,490.052521 167.250519,494.566772 161.314499,492.513214 
	C161.099930,492.439026 160.617920,493.137970 160.105316,493.791656 
	C152.741592,490.976440 145.398102,488.118439 138.366318,484.631805 
	C132.476868,481.711578 126.951492,478.057129 121.330292,474.129303 
	C123.346642,471.846344 125.696648,470.448975 127.160896,468.414215 
	C129.764099,464.796753 131.830688,460.793121 134.458313,457.015503 
	C144.768204,462.116699 154.741531,467.153412 164.969940,472.438293 
	C168.483658,474.135040 171.742279,475.583649 175.000885,477.032288 
z"/>
<path fill="#485359" opacity="1.000000" stroke="none" 
	d="
M134.121735,456.951019 
	C131.830688,460.793121 129.764099,464.796753 127.160896,468.414215 
	C125.696648,470.448975 123.346642,471.846344 121.171707,473.817688 
	C112.868629,468.473511 104.649391,463.030243 96.760567,457.144104 
	C91.663185,453.340698 87.049713,448.888702 82.086395,444.419861 
	C83.445229,444.482849 85.292404,444.423859 86.359871,445.307159 
	C89.166672,447.629761 90.791969,446.531647 92.031052,443.858582 
	C94.089035,439.418884 96.016136,434.918488 98.368652,430.196350 
	C110.533203,438.949707 122.327469,447.950348 134.121735,456.951019 
z"/>
<path fill="#384449" opacity="1.000000" stroke="none" 
	d="
M503.066956,185.550339 
	C501.112640,188.990265 498.877075,191.899460 497.165344,195.089737 
	C494.755615,199.580826 492.796295,204.311661 490.494507,208.864227 
	C490.033417,209.776169 488.900604,210.348480 487.560181,210.802856 
	C484.788483,202.034897 483.392731,193.191269 480.101135,185.120895 
	C473.230164,168.274582 465.357941,151.836655 458.046600,134.903778 
	C461.811493,127.346512 465.426819,120.116447 469.042145,112.886383 
	C484.215057,134.260513 494.574127,157.973175 502.896759,182.668808 
	C503.150726,183.422409 502.987976,184.316483 503.066956,185.550339 
z"/>
<path fill="#3C474D" opacity="1.000000" stroke="none" 
	d="
M468.910278,112.567917 
	C465.426819,120.116447 461.811493,127.346512 457.757629,134.715698 
	C447.532684,121.942261 437.746246,109.029694 428.003693,95.755325 
	C430.093597,91.123138 432.237762,86.895378 434.123108,82.555199 
	C434.657623,81.324783 434.683929,79.734894 434.509216,78.365234 
	C434.188202,75.848396 433.544891,73.372681 433.035919,70.879822 
	C446.717377,83.142815 458.317841,97.203720 468.910278,112.567917 
z"/>
<path fill="#434E54" opacity="1.000000" stroke="none" 
	d="
M356.004822,20.166012 
	C370.259186,27.859802 384.513519,35.553593 398.892639,43.992966 
	C398.388672,47.397781 398.000916,50.144344 397.076324,52.696396 
	C395.577087,56.834469 393.725739,60.844975 391.693176,64.831161 
	C379.908325,58.185665 368.453400,51.618336 356.683533,44.867409 
	C353.902496,43.486614 351.436371,42.289413 349.012421,40.726006 
	C351.371307,33.628536 353.688080,26.897274 356.004822,20.166012 
z"/>
<path fill="#3F4B50" opacity="1.000000" stroke="none" 
	d="
M392.023041,64.909332 
	C393.725739,60.844975 395.577087,56.834469 397.076324,52.696396 
	C398.000916,50.144344 398.388672,47.397781 399.028870,44.311436 
	C404.749542,47.815601 410.666565,51.481827 416.111267,55.750462 
	C421.902130,60.290493 427.245544,65.401245 432.910156,70.571304 
	C433.544891,73.372681 434.188202,75.848396 434.509216,78.365234 
	C434.683929,79.734894 434.657623,81.324783 434.123108,82.555199 
	C432.237762,86.895378 430.093597,91.123138 427.695312,95.618073 
	C415.569702,85.531517 403.796356,75.220428 392.023041,64.909332 
z"/>
<path fill="#475257" opacity="1.000000" stroke="none" 
	d="
M355.626526,20.085522 
	C353.688080,26.897274 351.371307,33.628536 348.649963,40.624290 
	C334.438782,36.439766 320.632202,31.990757 306.825592,27.541744 
	C308.852753,22.086956 310.879944,16.632174 312.394958,12.555521 
	C310.660065,10.165277 309.372498,8.391334 308.062744,6.250416 
	C321.969940,9.911182 335.904053,13.922875 349.823181,17.985933 
	C351.670563,18.525192 353.441742,19.325575 355.626526,20.085522 
z"/>
<path fill="#364249" opacity="1.000000" stroke="none" 
	d="
M294.413605,510.895355 
	C297.307709,503.161987 300.610107,495.490265 304.336029,487.350067 
	C306.044250,486.567780 307.357269,486.339691 308.609406,485.926910 
	C321.430695,481.700104 334.242035,477.443237 347.423889,473.135864 
	C359.523682,467.036713 371.255798,460.996429 382.987915,454.956116 
	C381.900604,457.497009 380.878632,460.068268 379.714142,462.573242 
	C375.863678,470.855865 371.961761,479.114624 368.057861,487.751526 
	C351.752808,496.201019 334.755676,502.324799 317.056641,506.433502 
	C309.691895,508.143188 302.236237,509.461029 294.413605,510.895355 
z"/>
<path fill="#E7E7E7" opacity="1.000000" stroke="none" 
	d="
M391.693176,64.831169 
	C403.796356,75.220428 415.569702,85.531517 427.651428,95.979874 
	C437.746246,109.029694 447.532684,121.942261 457.608063,135.042892 
	C465.357941,151.836655 473.230164,168.274582 480.101135,185.120895 
	C483.392731,193.191269 484.788483,202.034897 487.169495,210.867126 
	C493.869598,246.367584 493.013519,281.317078 483.949066,315.953491 
	C476.903534,342.875305 465.344025,367.760468 449.352020,390.561584 
	C448.500275,391.776031 447.626801,392.975220 446.782135,394.155304 
	C435.331421,388.727600 424.044495,383.377502 412.161346,377.743713 
	C406.678925,375.396881 401.893005,373.041168 396.887604,371.325928 
	C382.324463,366.335449 367.673523,361.601349 352.783203,356.528259 
	C351.546326,356.040833 350.593597,355.737854 349.618652,355.550812 
	C331.093536,351.996277 312.565796,348.455383 293.691101,344.711365 
	C287.908630,344.014313 282.470001,343.060394 277.039368,343.103882 
	C258.359375,343.253296 239.682190,343.751526 221.003265,343.716003 
	C222.526413,339.496399 224.164627,335.718414 225.544128,331.848175 
	C227.146210,327.353516 228.521362,322.777985 230.400238,318.230713 
	C233.571732,318.695160 236.325867,319.259613 239.106339,319.621582 
	C251.433212,321.226471 263.754028,321.856934 276.442139,319.125488 
	C285.795471,316.746399 295.048431,315.144775 303.605408,311.775574 
	C342.315094,296.533966 367.576050,268.425964 379.715332,228.874298 
	C385.612396,209.660675 386.824463,189.987885 382.243408,169.995483 
	C379.136169,156.435043 375.854187,143.102448 368.645569,130.689209 
	C360.391815,115.733406 349.410706,103.478302 336.827698,92.339661 
	C342.002472,81.417870 347.216888,70.950867 351.960052,60.274498 
	C354.119720,55.413334 355.347809,50.138302 356.998444,45.050999 
	C368.453400,51.618336 379.908325,58.185665 391.693176,64.831169 
z"/>
<path fill="#2489E1" opacity="1.000000" stroke="none" 
	d="
M383.187561,454.689209 
	C371.255798,460.996429 359.523682,467.036713 347.410889,472.745361 
	C348.271179,468.325043 346.802765,465.325500 343.909790,462.270630 
	C336.417877,454.359436 329.280273,446.112762 322.390533,438.006714 
	C325.225891,437.799622 328.599487,438.536682 329.959808,437.209808 
	C336.351227,430.975342 342.391785,424.345673 348.178375,417.534882 
	C357.034149,407.111816 365.578705,396.424347 374.627502,385.873718 
	C384.338593,389.530243 393.677551,393.162079 403.016479,396.793945 
	C412.839539,401.475677 422.662567,406.157440 433.150330,411.155975 
	C418.318726,428.731293 401.584991,442.410339 383.187561,454.689209 
z"/>
<path fill="#38444A" opacity="1.000000" stroke="none" 
	d="
M403.059631,396.447723 
	C393.677551,393.162079 384.338593,389.530243 374.349243,385.625153 
	C364.440765,382.322388 355.182678,379.292847 345.973907,375.877686 
	C348.367828,369.250275 350.712433,363.008484 353.057007,356.766693 
	C367.673523,361.601349 382.324463,366.335449 396.887604,371.325928 
	C401.893005,373.041168 406.678925,375.396881 411.797302,377.722137 
	C409.053925,384.023376 406.078369,390.062439 403.059631,396.447723 
z"/>
<path fill="#E9E9E9" opacity="1.000000" stroke="none" 
	d="
M229.994995,318.237549 
	C228.521362,322.777985 227.146210,327.353516 225.544128,331.848175 
	C224.164627,335.718414 222.526413,339.496399 220.671921,343.874146 
	C218.896301,344.683441 217.451355,344.933716 215.590576,345.139893 
	C207.483536,346.411530 199.660431,347.213165 192.127304,349.145355 
	C174.006271,353.793274 156.021118,358.970886 137.981155,363.934845 
	C128.353775,367.463593 118.543343,370.567749 109.142059,374.620911 
	C95.158737,380.649506 81.464630,387.348969 67.163750,393.987427 
	C66.048424,392.468231 64.606476,390.504150 62.924919,388.278015 
	C55.142914,374.220032 47.420002,360.518097 40.158619,346.575775 
	C37.705051,341.864807 36.420433,336.545013 34.344444,331.240051 
	C31.413866,320.056702 28.413366,309.204315 26.141855,298.201385 
	C22.516342,280.639832 22.005856,262.804443 22.531128,244.459076 
	C24.145878,223.396820 27.583097,203.159042 34.151142,183.508438 
	C47.462536,143.682739 69.960526,109.914886 101.216095,81.484665 
	C106.660736,76.981361 111.789680,72.587914 117.210365,68.590019 
	C136.922333,54.051926 158.336899,42.711426 181.839920,34.649193 
	C205.842102,26.624683 230.229660,22.768003 255.586166,22.136303 
	C272.660309,23.828949 289.321869,25.626406 306.404541,27.482803 
	C320.632202,31.990757 334.438782,36.439766 348.607849,40.990494 
	C351.436371,42.289413 353.902496,43.486614 356.683533,44.867409 
	C355.347809,50.138302 354.119720,55.413334 351.960052,60.274498 
	C347.216888,70.950867 342.002472,81.417870 336.516815,92.182770 
	C333.832001,90.880478 331.610809,89.365761 329.198120,87.553482 
	C325.919617,85.334007 322.916504,83.258949 319.731659,81.515839 
	C302.994781,72.355408 285.302887,66.384140 265.684753,65.583023 
	C245.800003,64.149635 226.945877,66.926376 208.549896,74.770447 
	C198.452744,80.547333 188.728165,86.278755 178.678040,92.101410 
	C164.895554,102.623413 153.954651,115.264168 145.646545,130.098297 
	C134.192947,150.548660 128.425568,172.470795 129.221832,196.442932 
	C129.997650,217.602371 134.950241,237.181198 145.548248,255.559021 
	C153.330811,269.391266 162.924515,281.254669 175.236877,291.261169 
	C186.651123,300.616150 198.883926,308.001129 212.524017,312.922607 
	C215.319092,313.931091 218.183380,314.747711 221.343048,315.877563 
	C224.445206,316.814117 227.220093,317.525848 229.994995,318.237549 
z"/>
<path fill="#3192E7" opacity="1.000000" stroke="none" 
	d="
M175.377686,477.051819 
	C171.742279,475.583649 168.483658,474.135040 165.281067,472.233856 
	C165.855118,470.936890 166.459457,470.133118 166.878616,469.242218 
	C180.062286,441.222168 193.310760,413.232056 206.327972,385.134796 
	C209.000809,379.365570 210.798676,373.190918 213.414825,367.113617 
	C225.546555,366.061829 237.263275,365.099548 249.023651,364.469635 
	C250.322250,366.313995 251.480026,367.920807 252.847839,369.322693 
	C261.873322,378.572662 270.944031,387.778534 279.957275,397.377563 
	C279.064392,400.256134 278.440704,402.861847 277.329010,405.239349 
	C266.562378,428.264862 255.671127,451.232086 244.920670,474.265106 
	C242.407532,479.649567 240.292648,485.219879 237.994537,490.704712 
	C236.938080,490.736572 235.881622,490.768433 234.427948,490.821045 
	C222.194748,488.595398 210.287537,486.662109 198.548019,483.991608 
	C190.825073,482.234802 183.343903,479.415070 175.377686,477.051819 
z"/>
<path fill="#2A8EE6" opacity="1.000000" stroke="none" 
	d="
M238.450836,490.809204 
	C240.292648,485.219879 242.407532,479.649567 244.920670,474.265106 
	C255.671127,451.232086 266.562378,428.264862 277.329010,405.239349 
	C278.440704,402.861847 279.064392,400.256134 280.232727,397.503082 
	C281.366455,397.834473 282.182007,398.419067 283.142334,399.302979 
	C296.191833,412.401489 309.096527,425.200745 322.001221,438.000000 
	C329.280273,446.112762 336.417877,454.359436 343.909790,462.270630 
	C346.802765,465.325500 348.271179,468.325043 347.043182,472.804230 
	C334.242035,477.443237 321.430695,481.700104 308.609406,485.926910 
	C307.357269,486.339691 306.044250,486.567780 304.381897,486.986267 
	C290.062775,488.556915 276.145233,490.358612 262.170319,491.356140 
	C254.465698,491.906067 246.664688,491.105438 238.450836,490.809204 
z"/>
<path fill="#3895E7" opacity="1.000000" stroke="none" 
	d="
M212.999847,367.203156 
	C210.798676,373.190918 209.000809,379.365570 206.327972,385.134796 
	C193.310760,413.232056 180.062286,441.222168 166.878616,469.242218 
	C166.459457,470.133118 165.855118,470.936890 165.025986,471.985718 
	C154.741531,467.153412 144.768204,462.116699 134.458313,457.015503 
	C122.327469,447.950348 110.533203,438.949707 98.420471,429.813293 
	C92.624512,423.942749 87.147011,418.207916 80.939789,411.709106 
	C96.687218,402.871796 112.541344,396.098785 129.202362,389.407410 
	C141.127823,385.350311 152.295288,381.094788 163.770691,377.970184 
	C178.426102,373.979614 193.330078,370.901917 208.531494,367.383484 
	C210.290665,367.291840 211.645264,367.247498 212.999847,367.203156 
z"/>
<path fill="#465258" opacity="1.000000" stroke="none" 
	d="
M208.126923,367.430756 
	C193.330078,370.901917 178.426102,373.979614 163.770691,377.970184 
	C152.295288,381.094788 141.127823,385.350311 129.449493,389.162354 
	C130.673965,384.576080 132.217712,379.911041 133.888718,375.291992 
	C135.173126,371.741577 136.617752,368.249146 137.986145,364.332886 
	C156.021118,358.970886 174.006271,353.793274 192.127304,349.145355 
	C199.660431,347.213165 207.483536,346.411530 215.588654,345.522766 
	C215.490341,347.654846 215.075317,349.396637 214.448120,351.058350 
	C212.382446,356.531464 210.239929,361.975525 208.126923,367.430756 
z"/>
<path fill="#3F4B50" opacity="1.000000" stroke="none" 
	d="
M368.727600,131.010956 
	C375.854187,143.102448 379.136169,156.435043 382.243408,169.995483 
	C386.824463,189.987885 385.612396,209.660675 379.715332,228.874298 
	C367.576050,268.425964 342.315094,296.533966 303.605408,311.775574 
	C295.048431,315.144775 285.795471,316.746399 276.436523,318.725830 
	C276.557281,316.431396 276.932251,314.500061 277.683533,312.728302 
	C280.047668,307.152863 282.553192,301.637390 285.364380,295.984100 
	C293.089294,292.836426 300.793182,290.429810 307.757385,286.657593 
	C332.718933,273.136871 349.587280,252.528412 358.476685,225.652832 
	C362.611053,213.153152 364.097351,200.201935 363.316254,186.892136 
	C362.656982,175.658142 360.098907,164.963776 356.982544,153.958344 
	C359.265533,147.734833 361.127686,141.776993 363.632965,136.103088 
	C364.537201,134.055161 366.984436,132.688492 368.727600,131.010956 
z"/>
<path fill="#414D52" opacity="1.000000" stroke="none" 
	d="
M208.531494,367.383484 
	C210.239929,361.975525 212.382446,356.531464 214.448120,351.058350 
	C215.075317,349.396637 215.490341,347.654846 216.004456,345.566864 
	C217.451355,344.933716 218.896301,344.683441 220.672592,344.274994 
	C239.682190,343.751526 258.359375,343.253296 277.039368,343.103882 
	C282.470001,343.060394 287.908630,344.014313 293.547211,345.047363 
	C291.168427,352.032135 288.585999,358.480591 285.555969,364.965393 
	C273.065552,364.713623 261.022766,364.425476 248.980011,364.137329 
	C237.263275,365.099548 225.546555,366.061829 213.414825,367.113617 
	C211.645264,367.247498 210.290665,367.291840 208.531494,367.383484 
z"/>
<path fill="#3C474E" opacity="1.000000" stroke="none" 
	d="
M286.003601,364.929016 
	C288.585999,358.480591 291.168427,352.032135 293.894714,345.247681 
	C312.565796,348.455383 331.093536,351.996277 349.618652,355.550812 
	C350.593597,355.737854 351.546326,356.040833 352.783203,356.528259 
	C350.712433,363.008484 348.367828,369.250275 345.569580,375.835052 
	C333.205627,373.713684 321.295319,371.249329 309.048157,368.544128 
	C301.142059,367.178497 293.572845,366.053772 286.003601,364.929016 
z"/>
<path fill="#434E54" opacity="1.000000" stroke="none" 
	d="
M368.645569,130.689209 
	C366.984436,132.688492 364.537201,134.055161 363.632965,136.103088 
	C361.127686,141.776993 359.265533,147.734833 356.745544,153.705917 
	C355.299103,151.848526 354.256256,149.865646 353.048218,147.570068 
	C350.011444,142.085251 347.908478,136.243607 344.108063,131.880554 
	C336.219666,122.824242 327.430481,114.552582 319.015015,105.574890 
	C320.537598,101.412872 321.720795,97.446152 323.694153,93.921906 
	C325.009949,91.572006 327.451752,89.852623 329.389618,87.851051 
	C331.610809,89.365761 333.832001,90.880478 336.364075,92.552078 
	C349.410706,103.478302 360.391815,115.733406 368.645569,130.689209 
z"/>
<path fill="#434E54" opacity="1.000000" stroke="none" 
	d="
M285.003967,296.098694 
	C282.553192,301.637390 280.047668,307.152863 277.683533,312.728302 
	C276.932251,314.500061 276.557281,316.431396 276.015686,318.689392 
	C263.754028,321.856934 251.433212,321.226471 239.106339,319.621582 
	C236.325867,319.259613 233.571732,318.695160 230.400238,318.230713 
	C227.220093,317.525848 224.445206,316.814117 221.341873,315.500427 
	C221.418518,313.153687 221.588028,311.309601 222.273682,309.683105 
	C224.183517,305.152710 226.307495,300.712585 228.741638,296.340363 
	C232.424164,296.920319 235.711945,297.396729 239.405823,297.973663 
	C254.702179,300.604156 269.434509,299.945679 284.250153,295.937195 
	C284.669281,296.025360 284.836639,296.062012 285.003967,296.098694 
z"/>
<path fill="#2887DB" opacity="1.000000" stroke="none" 
	d="
M309.385010,368.784973 
	C321.295319,371.249329 333.205627,373.713684 345.520264,376.220673 
	C355.182678,379.292847 364.440765,382.322388 373.977112,385.600494 
	C365.578705,396.424347 357.034149,407.111816 348.178375,417.534882 
	C342.391785,424.345673 336.351227,430.975342 329.959808,437.209808 
	C328.599487,438.536682 325.225891,437.799622 322.390533,438.006714 
	C309.096527,425.200745 296.191833,412.401489 283.452576,399.166870 
	C288.703918,393.238403 293.926605,387.864075 298.831238,382.213684 
	C302.558777,377.919403 305.881897,373.274078 309.385010,368.784973 
z"/>
<path fill="#4E595F" opacity="1.000000" stroke="none" 
	d="
M145.405746,255.227737 
	C134.950241,237.181198 129.997650,217.602371 129.571854,196.430923 
	C131.128906,194.708450 132.644318,193.611557 133.355499,192.128906 
	C137.741226,182.985565 141.908249,173.737686 146.217758,164.557327 
	C156.747528,142.126236 167.337723,119.723473 177.820145,97.270348 
	C178.562836,95.679512 178.624985,93.770973 179.003571,92.010178 
	C188.728165,86.278755 198.452744,80.547333 208.545349,75.152206 
	C207.456314,78.632568 205.874680,81.725883 204.568512,84.931435 
	C201.976318,91.293114 199.535995,97.716675 196.881531,104.410095 
	C185.731079,112.870651 176.076340,122.325775 168.403122,133.755402 
	C153.717346,155.630585 148.218765,179.806931 151.277664,205.739075 
	C152.290176,214.322800 155.595642,222.636063 157.876862,231.427887 
	C157.945648,232.491165 157.990295,233.199554 157.844666,234.195129 
	C155.425186,238.199615 153.177719,241.906113 150.972336,245.637482 
	C149.091705,248.819382 147.259415,252.029892 145.405746,255.227737 
z"/>
<path fill="#475358" opacity="1.000000" stroke="none" 
	d="
M329.198120,87.553482 
	C327.451752,89.852623 325.009949,91.572006 323.694153,93.921906 
	C321.720795,97.446152 320.537598,101.412872 318.708862,105.467316 
	C317.273834,105.141823 316.148285,104.540459 314.813660,103.674873 
	C307.831482,99.993980 301.205414,96.236397 294.252136,93.237518 
	C282.732269,88.269135 270.353668,87.094276 258.035431,85.675957 
	C260.731384,78.794601 263.390686,72.282524 266.049957,65.770447 
	C285.302887,66.384140 302.994781,72.355408 319.731659,81.515839 
	C322.916504,83.258949 325.919617,85.334007 329.198120,87.553482 
z"/>
<path fill="#4D585E" opacity="1.000000" stroke="none" 
	d="
M265.684753,65.583023 
	C263.390686,72.282524 260.731384,78.794601 257.714844,85.724701 
	C256.557861,86.368629 255.758133,86.594543 254.497559,86.799545 
	C243.209488,88.702469 232.125977,89.751183 221.635300,92.823914 
	C213.067215,95.333481 205.206985,100.259834 197.032928,104.114670 
	C199.535995,97.716675 201.976318,91.293114 204.568512,84.931435 
	C205.874680,81.725883 207.456314,78.632568 208.917938,75.106735 
	C226.945877,66.926376 245.800003,64.149635 265.684753,65.583023 
z"/>
<path fill="#515C61" opacity="1.000000" stroke="none" 
	d="
M178.678040,92.101410 
	C178.624985,93.770973 178.562836,95.679512 177.820145,97.270348 
	C167.337723,119.723473 156.747528,142.126236 146.217758,164.557327 
	C141.908249,173.737686 137.741226,182.985565 133.355499,192.128906 
	C132.644318,193.611557 131.128906,194.708450 129.635223,195.995667 
	C128.425568,172.470795 134.192947,150.548660 145.646545,130.098297 
	C153.954651,115.264168 164.895554,102.623413 178.678040,92.101410 
z"/>
<path fill="#475358" opacity="1.000000" stroke="none" 
	d="
M228.346924,296.236816 
	C226.307495,300.712585 224.183517,305.152710 222.273682,309.683105 
	C221.588028,311.309601 221.418518,313.153687 221.014587,315.275635 
	C218.183380,314.747711 215.319092,313.931091 212.524017,312.922607 
	C198.883926,308.001129 186.651123,300.616150 175.505157,291.046112 
	C177.856689,285.803986 179.957169,281.005310 182.399033,276.387146 
	C183.135788,274.993774 184.820114,274.101440 186.368118,273.127197 
	C191.404633,276.590820 196.143448,279.906830 201.087112,283.491882 
	C210.310287,287.919525 219.328598,292.078156 228.346924,296.236816 
z"/>
<path fill="#4B555A" opacity="1.000000" stroke="none" 
	d="
M186.070404,272.979584 
	C184.820114,274.101440 183.135788,274.993774 182.399033,276.387146 
	C179.957169,281.005310 177.856689,285.803986 175.356995,290.748474 
	C162.924515,281.254669 153.330811,269.391266 145.548248,255.559021 
	C147.259415,252.029892 149.091705,248.819382 150.972336,245.637482 
	C153.177719,241.906113 155.425186,238.199615 158.103516,234.425491 
	C160.905426,238.918884 162.698624,243.888046 165.726669,247.932755 
	C172.167725,256.536377 179.250580,264.659515 186.070404,272.979584 
z"/>
<path fill="#2C86D5" opacity="1.000000" stroke="none" 
	d="
M309.048157,368.544128 
	C305.881897,373.274078 302.558777,377.919403 298.831238,382.213684 
	C293.926605,387.864075 288.703918,393.238403 283.307800,398.867554 
	C282.182007,398.419067 281.366455,397.834473 280.275452,397.124329 
	C270.944031,387.778534 261.873322,378.572662 252.847839,369.322693 
	C251.480026,367.920807 250.322250,366.313995 249.023651,364.469666 
	C261.022766,364.425476 273.065552,364.713623 285.555969,364.965393 
	C293.572845,366.053772 301.142059,367.178497 309.048157,368.544128 
z"/>
<path fill="#2D84D1" opacity="1.000000" stroke="none" 
	d="
M285.364380,295.984100 
	C284.836639,296.062012 284.669281,296.025360 284.257507,295.564514 
	C284.297455,294.195251 284.470795,293.198669 284.882385,292.312714 
	C298.397827,263.220154 311.952911,234.145996 325.464752,205.051773 
	C333.514282,187.719299 341.467834,170.342163 349.564117,153.031677 
	C350.441101,151.156601 351.981018,149.591614 353.213440,147.882782 
	C354.256256,149.865646 355.299103,151.848526 356.578888,154.083801 
	C360.098907,164.963776 362.656982,175.658142 363.316254,186.892136 
	C364.097351,200.201935 362.611053,213.153152 358.476685,225.652832 
	C349.587280,252.528412 332.718933,273.136871 307.757385,286.657593 
	C300.793182,290.429810 293.089294,292.836426 285.364380,295.984100 
z"/>
<path fill="#3086D2" opacity="1.000000" stroke="none" 
	d="
M353.048218,147.570068 
	C351.981018,149.591614 350.441101,151.156601 349.564117,153.031677 
	C341.467834,170.342163 333.514282,187.719299 325.464752,205.051773 
	C311.952911,234.145996 298.397827,263.220154 284.882385,292.312714 
	C284.470795,293.198669 284.297455,294.195251 284.005737,295.512970 
	C269.434509,299.945679 254.702179,300.604156 239.412811,297.601990 
	C239.048889,296.799927 238.998260,296.429840 239.131470,296.146027 
	C248.280685,276.653229 257.471222,257.179749 266.561554,237.659576 
	C267.369690,235.924240 267.533875,233.889023 268.194702,231.719910 
	C292.748291,216.953415 308.875549,195.924744 316.726196,168.864212 
	C320.602509,155.502686 322.768372,141.685867 320.004303,127.663818 
	C318.441589,119.736298 316.689514,111.846100 315.022736,103.939087 
	C316.148285,104.540459 317.273834,105.141823 318.705505,105.850769 
	C327.430481,114.552582 336.219666,122.824242 344.108063,131.880554 
	C347.908478,136.243607 350.011444,142.085251 353.048218,147.570068 
z"/>
<path fill="#3388D3" opacity="1.000000" stroke="none" 
	d="
M267.997131,231.993088 
	C267.533875,233.889023 267.369690,235.924240 266.561554,237.659576 
	C257.471222,257.179749 248.280685,276.653229 239.131470,296.146027 
	C238.998260,296.429840 239.048889,296.799927 239.006714,297.501465 
	C235.711945,297.396729 232.424164,296.920319 228.741653,296.340332 
	C219.328598,292.078156 210.310287,287.919525 201.238174,283.151001 
	C205.221176,274.150177 209.318863,265.787689 213.266724,257.355072 
	C215.002228,253.647980 216.432663,249.798065 218.454956,246.008789 
	C236.501099,245.642838 252.663406,240.269440 267.997131,231.993088 
z"/>
<path fill="#3E99E9" opacity="1.000000" stroke="none" 
	d="
M196.881531,104.410095 
	C205.206985,100.259834 213.067215,95.333481 221.635300,92.823914 
	C232.125977,89.751183 243.209488,88.702469 254.505890,87.198570 
	C254.050720,90.262840 253.347290,93.010300 252.168472,95.535873 
	C237.076187,127.870354 221.891113,160.161499 206.785858,192.489944 
	C201.238525,204.362411 195.949127,216.356323 190.319061,228.188721 
	C188.024094,233.011963 186.883804,239.090515 179.615570,239.997742 
	C173.912064,237.697754 168.599777,235.384979 163.265457,233.124222 
	C161.490295,232.371872 159.658600,231.752930 157.852737,231.072983 
	C155.595642,222.636063 152.290176,214.322800 151.277664,205.739075 
	C148.218765,179.806931 153.717346,155.630585 168.403122,133.755402 
	C176.076340,122.325775 185.731079,112.870651 196.881531,104.410095 
z"/>
<path fill="#388BD4" opacity="1.000000" stroke="none" 
	d="
M157.876862,231.427887 
	C159.658600,231.752930 161.490295,232.371872 163.265457,233.124222 
	C168.599777,235.384979 173.912064,237.697754 179.848114,240.274841 
	C192.573563,245.147888 205.164444,246.428085 218.001617,246.013000 
	C216.432663,249.798065 215.002228,253.647980 213.266724,257.355072 
	C209.318863,265.787689 205.221176,274.150177 201.033310,282.882019 
	C196.143448,279.906830 191.404633,276.590820 186.368103,273.127197 
	C179.250580,264.659515 172.167725,256.536377 165.726669,247.932755 
	C162.698624,243.888046 160.905426,238.918884 158.293793,234.138275 
	C157.990295,233.199554 157.945648,232.491165 157.876862,231.427887 
z"/>
<path fill="#3896E8" opacity="1.000000" stroke="none" 
	d="
M218.454956,246.008789 
	C205.164444,246.428085 192.573563,245.147888 180.230743,240.282364 
	C186.883804,239.090515 188.024094,233.011963 190.319061,228.188721 
	C195.949127,216.356323 201.238525,204.362411 206.785858,192.489944 
	C221.891113,160.161499 237.076187,127.870354 252.168472,95.535873 
	C253.347290,93.010300 254.050720,90.262840 254.966766,87.219482 
	C255.758133,86.594543 256.557861,86.368629 257.678162,86.093971 
	C270.353668,87.094276 282.732269,88.269135 294.252136,93.237518 
	C301.205414,96.236397 307.831482,99.993980 314.813660,103.674866 
	C316.689514,111.846100 318.441589,119.736298 320.004303,127.663818 
	C322.768372,141.685867 320.602509,155.502686 316.726196,168.864212 
	C308.875549,195.924744 292.748291,216.953415 268.194702,231.719910 
	C252.663406,240.269440 236.501099,245.642838 218.454956,246.008789 
z"/>
</svg>